<svg version="1.0" xmlns="http://www.w3.org/2000/svg" width="60" height="60" viewBox="0 0 512 512" fill="#d5cea3"><path d="M80.5 135.5c-9.8 3.5-12.9 15.5-6.4 24.7 4.5 6.2-9 5.8 183.1 5.8 164.9 0 175.5-.1 178.7-1.8 5.3-2.6 7.5-6.4 7.5-12.5 0-8.6-4.8-14.9-13-16.7-2.3-.6-75.7-.9-174.9-.9-144.9 0-171.6.2-175 1.4zM77.4 240.4c-6.2 2.7-10.2 11.1-8.9 18.8.8 4.7 5.6 10.5 10.2 12.4 4.8 2.1 349.8 2.1 354.6 0 4.6-1.9 9.4-7.7 10.2-12.4 1.3-7.9-3.4-16.4-10.8-19.1-2-.8-56.7-1.1-177.5-1.1-144 .1-175.2.3-177.8 1.4zM76.3 347.6c-12.7 6.3-9.6 27.4 4.5 31.4 5.4 1.4 345.3 1.4 350.7-.1 14.1-3.9 16.5-24.3 3.6-30.9-4-2-4.8-2-179.8-2-159.1 0-176.1.2-179 1.6z"/></svg>